<svg xmlns="http://www.w3.org/2000/svg" viewBox="0 0 355.8 228.6"><path fill="#D45128" d="M335.8 22.1c1.7 1.9 3.2 3.9 4.5 6.1 1.3 2.2 2.4 4.6 3.3 7 .9 2.5 1.5 5.1 2 7.8s.7 5.6.7 8.6l-1.1 49.3c0 6.1-.9 11.8-2.7 16.9-1.8 5.2-4.5 9.8-7.9 13.8-3.4 4-7.7 7.4-12.6 10-5 2.7-10.6 4.5-17 5.5-.1 0-.3 0-.4.1-.1 0-.3 0-.4.1-.1 0-.3 0-.4.1h-.4l-119.3 12.4-.9.1-71 52.9-1.9-43.4-18.6 2.6c-10.8 1.4-20.2 1-28.1-.9-8-1.9-14.5-5.2-19.7-9.5-5.2-4.3-9.1-9.7-11.7-15.5-2.7-5.9-4.1-12.2-4.4-18.6l-1.3-62.6c-.5-8 .6-15.4 3.1-21.9 2.5-6.5 6.3-12.3 11.4-17 5-4.7 11.3-8.5 18.6-11.1 7.2-2.6 15.4-4.2 24.4-4.5h2.2l217.2-.4c3.5-.1 6.8.2 9.9.7 3.1.5 6 1.3 8.8 2.3 2.7 1 5.2 2.3 7.6 3.9 2.1 1.4 4.2 3.2 6.1 5.2zm-5.6 84.3c.2-.4.3-.6.3-.7m-101.4 27.7c.1 0 .2 0 .2-.1.1 0 .1-.1.2-.2s.1-.1.1-.2v-.6c0-.1-.1-.2-.1-.3-.1-.1-.1-.2-.2-.2-.1-.1-.2-.1-.2-.2l-3.3-3.4c-.1-.1-.2-.2-.3-.4l-.3-.6c-.1-.2-.2-.5-.3-.8l-.3-.9-11-36.5 8.4-24.6.3-.9c.1-.3.2-.5.3-.8.1-.3.2-.5.4-.7.1-.2.3-.5.4-.7l2.2-2.4c.1-.1.2-.3.3-.4.1-.1.1-.2.2-.3 0-.1.1-.2.1-.2v-.5c0-.1 0-.1-.1-.2l-.1-.1h-.2l-12.5.3h-.3c-.1 0-.1.1-.2.1l-.1.1v.3s0 .1.1.1l.1.1c0 .1.1.1.1.2l2.3 3.4c.2.2.3.4.4.7.1.2.2.5.2.8v.9c0 .3-.1.6-.2.9l-8.2 24.2h-.3l-.2-58.2v-.4c0-.1-.1-.2-.1-.3 0-.1-.1-.1-.2-.2-.1 0-.2-.1-.3-.1h-12.3c-.1 0-.2.1-.2.1-.1 0-.1.1-.1.2v.4c0 .1 0 .2.1.3 0 .1.1.2.2.3.1.1.1.2.2.2l3.7 3.3c.1.1.2.1.2.2.1.1.1.2.2.3 0 .1.1.2.1.3v.3l.5 93.7v.3c0 .1 0 .2-.1.3 0 .1-.1.2-.1.3-.1.1-.1.2-.2.2l-3.6 3.5-.2.2c-.1.1-.1.2-.2.3 0 .1-.1.2-.1.3v.2c0 .1 0 .2.1.3 0 .1.1.1.1.2.1 0 .1.1.2.1h.3l15.6-1.3c.1 0 .2 0 .3-.1.1 0 .2-.1.2-.1.1 0 .1-.1.2-.2 0-.1.1-.2.1-.3v-.2c0-.1-.1-.2-.1-.2 0-.1-.1-.2-.2-.2l-.2-.2-2.9-2.9c-.1-.1-.2-.1-.2-.2-.1-.1-.1-.2-.2-.3 0-.1-.1-.2-.1-.3v-.3l-.1-21.8 2.1-6.1 8.2 26.9c.1.2.1.4.1.6v.6c0 .2 0 .4-.1.6 0 .2-.1.4-.2.5l-1.3 2.2c-.1.1-.1.2-.2.3-.1.1-.1.2-.2.3 0 .1-.1.2-.1.3v.4c0 .1 0 .1.1.2l.1.1h.3l12.7-.8m-70.5 5.9c.8-.1 1.6-.5 2.3-1 .7-.5 1.4-1.3 2-2.1.6-.8 1.1-1.8 1.5-2.8.4-1 .6-2 .8-3.1v-.3c0-.1 0-.2-.1-.2 0-.1-.1-.1-.1-.1h-.2c-.1 0-.1 0-.2.1-.1 0-.1.1-.1.1 0 .1-.1.1-.1.2l-.2.2c-.2.4-.5.8-.8 1.1-.3.3-.6.6-.9.8-.3.2-.6.4-.9.5-.3.1-.6.2-1 .3-.3 0-.6-.1-.8-.2-.2-.2-.4-.4-.5-.8-.1-.3-.2-.7-.3-1.1-.1-.4-.1-.9-.1-1.3l-.9-52.4c0-3.7-.6-6.7-1.5-9.1-.9-2.4-2.1-4.2-3.5-5.5-1.4-1.3-2.9-2.1-4.4-2.7-1.5-.5-2.9-.7-4.2-.6h-.4c-1.9.1-3.7.9-5.5 1.9-1.7 1.1-3.4 2.4-4.8 3.9-1.4 1.4-2.6 2.9-3.4 4.1-.8 1.2-1.3 2.2-1.3 2.6v.3c0 .1 0 .2.1.2 0 .1.1.1.1.1h.2c.1 0 .2 0 .3-.1.1 0 .2-.1.3-.1.1 0 .2-.1.3-.1l.2-.2c.6-.7 1.4-1.4 2.3-2.1.9-.7 1.9-1.4 3-2 1.1-.6 2.2-1.2 3.3-1.6 1.1-.4 2.2-.7 3.1-.8h.4c1.1 0 2 0 2.7.3.7.2 1.3.6 1.8 1.2.4.6.8 1.4 1 2.4.2 1.1.3 2.4.3 4V77c0 1-.1 1.8-.3 2.5-.2.7-.4 1.3-.8 1.8-.4.6-.9 1.1-1.5 1.7-3.7 3.4-6.6 6.2-8.9 8.8-2.3 2.6-4 5-5.2 7.4-1.2 2.5-1.9 5-2.3 8-.4 3-.5 6.3-.4 10.4.1 5 .5 9 1.3 12.1.7 3.1 1.8 5.4 2.9 7 1.2 1.6 2.5 2.6 3.9 3.1s2.8.6 4.1.5h.4c.9-.1 1.7-.4 2.6-.8.8-.4 1.6-.9 2.4-1.5.8-.6 1.5-1.2 2.1-1.9.6-.7 1.2-1.4 1.7-2 .4.6.8 1.2 1.3 1.8.5.6 1 1.2 1.7 1.6.6.5 1.3.8 2.1 1.1.8.2 1.7.3 2.7.3.3.4.3.4.4.4-.1 0-.1 0 0 0m-58.3-40.4c-.1-7.4-.8-13.5-1.7-18.5-1-5-2.3-8.8-4-11.7-1.6-2.9-3.5-4.9-5.7-6.1-2.1-1.2-4.4-1.7-6.8-1.7h-.8c-2.3.2-4.5.9-6.5 2.3s-3.8 3.6-5.2 6.7C68.1 73 67 77 66.2 82.1c-.8 5.1-1.1 11.2-.9 18.7.2 9.5.9 17.1 2 23.2 1.1 6 2.5 10.5 4.2 13.8 1.7 3.3 3.6 5.3 5.7 6.5 2.1 1.2 4.4 1.5 6.7 1.3h.8c2.3-.3 4.4-1.1 6.4-2.7 1.9-1.6 3.7-4 5.1-7.5 1.4-3.5 2.5-8 3.2-14 .7-6.2 1-13.5.9-22.5M185 65.1c.7 0 1.3.1 2 .3.6.2 1.2.5 1.8.9.6.4 1.1 1 1.6 1.6.5.7.9 1.5 1.3 2.4.1.2.1.3.2.5s.1.3.2.4l.3.3c.1.1.2.1.3.1.1 0 .2-.1.3-.1.1-.1.1-.2.2-.3 0-.1.1-.3.1-.4v-.5c0-1.1-.2-2.4-.5-3.8-.3-1.3-.8-2.7-1.4-3.9-.6-1.2-1.3-2.3-2.2-3-.8-.8-1.8-1.2-2.8-1.2h-.4c-.7.1-1.4.3-2 .6-.6.3-1.2.8-1.8 1.4-.6.5-1.1 1.2-1.6 1.8l-1.5 2.1h-.3V59c0-.1-.1-.2-.1-.3l-.2-.2h-.3l-12.5.3c-.1 0-.3 0-.4.1-.1 0-.2.1-.2.1-.1 0-.1.1-.1.2v.5c0 .1 0 .2.1.3 0 .1.1.2.2.3l.3.3 3.8 3.9c.1.1.2.1.3.2.1.1.1.2.2.2 0 .1.1.2.1.3v.4l.6 64.8v.7c0 .1 0 .2-.1.3 0 .1-.1.2-.1.2l-4 5.3c-.1.1-.2.2-.2.3-.1.1-.1.2-.2.3 0 .1-.1.2-.1.3v.5c0 .1.1.1.1.2.1 0 .1.1.2.1h.3l17.1-1.4c.1 0 .3 0 .3-.1.1 0 .2-.1.2-.1.1 0 .1-.1.1-.2v-.4c0-.1 0-.2-.1-.3 0-.1-.1-.2-.2-.2l-.2-.2-4.4-4.6c0-.1-.1-.1-.1-.2v-1l-.4-51.4c0-1.8.1-3.5.4-5.1.3-1.6.6-3 1.1-4.2.5-1.2 1.1-2.2 1.8-2.9.7-.7 1.5-1.1 2.4-1.2h.5c-.1 0 0 0 0 0m-60.2 77c.2 0 .3 0 .4-.1.1 0 .2-.1.3-.1.1-.1.1-.1.1-.2v-.3c0-.1 0-.1-.1-.2 0-.1-.1-.2-.1-.3-.1-.1-.1-.2-.2-.3-.1-.1-.1-.2-.2-.2l-4.4-4.8-.2-.2c0-.1-.1-.2-.1-.3v-.8l-1.7-102.8c0-.2 0-.3-.1-.4 0-.1-.1-.2-.1-.3l-.2-.2c-.1 0-.2-.1-.3-.1h-14c-.1 0-.2.1-.3.1-.1 0-.1.1-.2.2 0 .1-.1.2-.1.3 0 .1 0 .2.1.2 0 .1.1.2.1.3.1.1.1.2.2.3.1.1.1.2.2.2l4.4 4.4c.1.1.1.2.2.2.1.1.1.2.1.3 0 .1.1.2.1.3v.4l1.7 97.1v.8c0 .1 0 .2-.1.3 0 .1-.1.2-.2.3l-4.3 5.5c-.1.1-.1.2-.2.3-.1.1-.1.2-.2.3-.1.1-.1.2-.1.3v.2c0 .1 0 .2.1.3 0 .1.1.1.2.2.1 0 .2.1.3.1h.3l18.6-1.3"/><path fill="#D45128" d="M144.2 134.2c-.1 0-.1 0 0 0-.1.1-.1.1 0 0h-.1c-.7.1-1.4-.1-1.9-.6-.6-.5-1-1.4-1.4-2.8-.4-1.4-.7-3.4-.9-6-.2-2.6-.4-5.9-.4-10.1 0-3.7 0-6.8.3-9.5s.8-5 1.5-7 1.7-3.8 2.9-5.6c1.2-1.7 2.7-3.4 4.5-5.2h.3l.5 38c0 .6 0 1.1-.1 1.7-.1.6-.2 1.1-.4 1.7-.2.5-.3 1.1-.6 1.6-.2.5-.5 1-.8 1.4l-1.8 1.9c-.1.1-.2.1-.4.2-.1.1-.2.1-.4.2-.1 0-.3.1-.4.1h-.4zM82.3 67.4c1 0 1.9.3 2.7 1.2.8.9 1.4 2.5 2 4.8.6 2.4 1 5.5 1.3 9.8.3 4.2.6 9.6.7 16.2.2 8.4.2 15 .1 20.2-.1 5.2-.4 9.1-.8 11.9-.4 2.8-1 4.6-1.7 5.7-.7 1.1-1.5 1.6-2.5 1.7h-.4c-1 .1-1.8-.2-2.5-1.1-.8-1-1.4-2.6-2-5.3-.6-2.7-1-6.6-1.4-11.8-.4-5.3-.7-12-.9-20.6-.1-6.6-.1-11.9 0-16.1.2-4.3.4-7.5.9-9.9.4-2.4 1-4 1.7-5s1.5-1.4 2.4-1.5c.3-.2.3-.2.4-.2-.1 0-.1 0 0 0-.1 0 0 0 0 0z"/><path d="M73.3 3.9C66 4.9 58.6 6 51.2 7.1c-1 .2-2.1.3-3.1.5h-.2c-.4.1-.7.1-1.1.2-.6.1-1.1.2-1.7.3-.1 0-.2.1-.3.1l-1.2.3c-.4.1-.9.2-1.3.3-.2 0-.3.1-.5.1l-1.2.3c-.4.1-.7.2-1.1.3-.2.1-.4.1-.6.2-.4.1-.8.2-1.1.4-.5.2-1.1.4-1.6.6-.4.1-.7.3-1.1.4-.2.1-.4.1-.5.2-.4.1-.7.3-1.1.5-.3.1-.6.3-1 .4-.6.3-1.1.5-1.7.8-.2.1-.5.2-.7.4 0 0-.1 0-.1.1-.7.4-1.5.8-2.2 1.2-.1.1-.2.1-.3.2-.6.3-1.1.7-1.7 1-.1 0-.1.1-.2.1-.3.2-.5.3-.7.5-.5.3-.9.6-1.4.9-.3.2-.5.4-.8.6-.2.2-.5.3-.7.5-.1.1-.3.2-.4.3L20.1 20c-.2.1-.4.3-.5.4l-.2.2c-.7.6-1.3 1.1-1.9 1.7l-.2.2c-.7.7-1.3 1.3-1.9 2l-.1.1c-.1.2-.3.3-.4.5-.4.5-.9 1-1.3 1.5l-.3.3c-.1.2-.2.3-.3.5-.2.2-.4.5-.6.7-.2.3-.4.6-.6.8-.1.2-.2.3-.4.5-.1.1-.1.2-.2.3-.5.7-.9 1.4-1.3 2.1-.1.1-.1.2-.2.2-.5.8-.9 1.6-1.4 2.4 0 .1-.1.1-.1.2-.1.2-.2.3-.2.5l-.9 1.8c-.1.1-.2.3-.2.4-.1.1-.1.2-.1.4-.4.8-.7 1.7-1 2.5 0 .1-.1.2-.1.2-.3.9-.6 1.8-.9 2.8 0 .1-.1.2-.1.4s-.1.3-.1.5c-.1.3-.2.6-.2.8-.1.5-.2.9-.3 1.4 0 .2-.1.4-.2.6-.2.9-.4 1.9-.6 2.8v.2c0 .2 0 .3-.1.5l-.3 2.4c0 .2-.1.5-.1.7-.1 1-.2 1.9-.2 2.9v.5c0 .8-.1 1.6-.1 2.5v.8c0 1 0 1.9.1 2.9L4 120c.3 4.3 1 8.5 2 12.3 1.1 3.8 2.5 7.4 4.4 10.7 1.8 3.3 4 6.2 6.5 8.9s5.3 5 8.5 7c6.5 4.2 12.9 8.4 19.4 12.6-3.4-2.2-6.5-4.8-9.2-7.7-2.7-2.9-5.1-6.2-7.1-9.8-2-3.6-3.6-7.5-4.8-11.7-1.2-4.2-1.9-8.8-2.2-13.6l-1.5-63c-.1-1.1-.1-2.1-.1-3.2v-.8c0-.9 0-1.8.1-2.7v-.6c.1-1.1.1-2.1.3-3.2 0-.3.1-.5.1-.8.1-.9.2-1.7.4-2.6 0-.3.1-.5.1-.8.2-1.1.4-2.1.6-3.2 0-.2.1-.4.1-.5.2-.9.4-1.8.7-2.7.1-.3.2-.5.2-.8.3-1.1.7-2.1 1-3.1 0 0 0-.1.1-.1.4-1 .8-2 1.2-2.9.1-.3.3-.6.4-.9.3-.7.6-1.3.9-2 .1-.3.3-.6.4-.8l1.5-2.7c.1-.1.1-.2.2-.3.5-.8 1-1.6 1.5-2.3.2-.3.4-.5.6-.8.4-.6.9-1.2 1.4-1.8.2-.3.4-.5.6-.8.4-.6.9-1.1 1.4-1.6.2-.2.4-.4.6-.7.7-.7 1.4-1.5 2.1-2.2.1-.1.2-.2.3-.2.7-.6 1.3-1.3 2-1.9.3-.2.5-.4.8-.6.6-.5 1.1-.9 1.7-1.4l1.2-.9.9-.6c.5-.3 1-.7 1.5-1l.9-.6c.7-.4 1.3-.8 2-1.2.1-.1.3-.2.4-.2.8-.5 1.7-.9 2.5-1.3.3-.1.6-.3.8-.4l1.8-.9c.4-.2.7-.3 1.1-.5.6-.2 1.1-.5 1.7-.7.4-.2.8-.3 1.2-.5.6-.2 1.1-.4 1.7-.6.3-.1.7-.3 1.1-.4.6-.2 1.2-.4 1.8-.5.4-.1.9-.3 1.4-.4.6-.2 1.3-.3 2-.5.4-.1.9-.2 1.3-.3.8-.2 1.5-.3 2.3-.5.4-.1.7-.2 1.1-.2 1-.3 2.2-.5 3.4-.6zm0 0v-.1M92 179.6c-4.1.6-8 .8-11.8.9l1.4 29.1 24.1 17-2.2-48.6-11.5 1.6zm233.4-67.8h-.1c-.1 0-.3-.1-.4-.2-.2-.1-.4-.2-.7-.3-.3-.1-.6-.3-1-.5-.5-.3-1.2-.6-1.9-.9-.7-.3-1.5-.7-2.3-1.1-.8-.4-1.7-.8-2.6-1.2-.9-.4-1.8-.8-2.8-1.3l-4.8-2.1c-1.6-.7-3.2-1.3-4.7-1.8s-2.9-.9-4.1-1.2c-1.2-.3-2.2-.4-3-.3h-.6c-.1 0-.1 0-.2.1 0 .1.1.6.3 1.4.2.8.4 1.9.6 3.1.2 1.2.4 2.5.6 3.7.2 1.3.3 2.5.4 3.5v1.4c0 .2-.1.4-.1.5 0 .1-.1.3-.2.4l-1.6-1.4-11.2-10.1.2 4.3-4.4 5.6 3.5-1.2h.5c.1 0 .3.1.4.2l.3.3c.1.1.1.2.1.4v.5c0 .2-.1.3-.1.5-.1.1-.2.3-.3.4-.1.1-.2.2-.4.2l-6.2 2.2.3 2.7.4 2.9v.5c0 .2-.1.3-.2.4-.1.1-.2.3-.3.3-.1.1-.3.2-.4.2-.2 0-.4 0-.5-.1-.1 0-.3-.1-.4-.2-.1-.1-.2-.2-.2-.3-.1-.1-.1-.2-.1-.4l-.4-3-.2-1.5-1.6 1.8-1.9 2.1c0 .1-.1.1-.2.1s-.1.1-.2.1-.1.1-.2.1h-.4c-.1 0-.2 0-.2-.1-.1 0-.1-.1-.2-.1l-.2-.2c-.1-.1-.2-.2-.2-.4 0-.1-.1-.3-.1-.4 0-.2 0-.3.1-.4 0-.1.1-.3.2-.4l2.5-2.7-6.7 1.6h-.4c-.1 0-.2-.1-.3-.1-.1-.1-.2-.1-.3-.2-.1-.1-.1-.2-.2-.3-.1-.1-.1-.2-.1-.4v-.5c0-.2.1-.3.2-.5.1-.1.2-.3.3-.3.1-.1.3-.2.4-.2l9.9-2.3 6.1-7.7-.2-3.9c-.5 0-1.1 0-1.8-.1-.7 0-1.5-.1-2.3-.2-.8-.1-1.7-.3-2.7-.5-1-.2-2-.5-3-.9l-.1 3.1-4.4 5.6 3.6-1.3h.5c.1 0 .3.1.4.2l.3.3c.1.1.1.2.2.4v.5c0 .2-.1.3-.1.5-.1.1-.2.3-.3.4-.1.1-.2.2-.4.2l-6.3 2.2-.7 3.4c0 .1-.1.3-.1.4-.1.1-.1.2-.2.3-.1.1-.2.2-.3.2-.1.1-.2.1-.3.1h-.4c-.2 0-.3-.1-.4-.2l-.3-.3c-.1-.1-.1-.3-.2-.4v-.5l.2-1.2-2.6 2.2-.1.1-.1.1s-.1 0-.1.1h-.1c-.1 0-.3 0-.4-.1-.1 0-.2-.1-.3-.1-.1 0-.1-.1-.2-.1-.1-.1-.1-.1-.1-.2 0 0 0-.1-.1-.1 0 0 0-.1-.1-.1v-.5c0-.1 0-.2.1-.3 0-.1.1-.2.2-.3.1-.1.1-.2.2-.3l1.6-1.4-4.3.2-1.3.1c-.2 0-.3-.1-.5-.1-.1-.1-.3-.2-.3-.3-.1-.1-.2-.2-.2-.4 0-.1-.1-.3-.1-.5v-.3c0-.1 0-.2.1-.3 0-.1.1-.2.1-.2 0-.1.1-.1.2-.2l.1-.1c.1 0 .1-.1.2-.1s.1-.1.2-.1h.2l8.7-.5c0-.1.1-.2.1-.2 0-.1.1-.1.1-.2l.2-.2s.1-.1.2-.1l5.6-7.1.1-3c-.3-.1-.5-.2-.8-.4-.3-.1-.5-.3-.8-.4-.3-.1-.6-.3-.8-.4-.3-.1-.6-.3-.8-.5-2.3-1.3-4.6-3-6.8-5.3s-4.2-5.1-6-8.6c-1.8-3.5-3.2-7.7-4.2-12.7-1-5-1.5-10.8-1.4-17.5V50c0-1.2.1-2.6.1-3.8.1-1.2.2-2.3.3-3.1 0-.1-.1-.4-.2-.9s-.3-1.2-.4-2c-.1-.8-.2-1.7-.2-2.6 0-.9.1-1.8.4-2.7.1 0 .3.3.7.6.4.4.9.8 1.5 1.3.5.5 1.1 1 1.6 1.5s.8.9 1 1.2c.2 0 1 .1 2.1.5s2.5 1.1 3.9 2.3c1.4 1.2 3 2.8 4.3 5.1 1.3 2.3 2.4 5.2 3.2 8.9.3.2 2.1 1.3 4.7 3s5.9 4.1 9.5 6.8c3.6 2.7 7.3 5.8 10.7 9 3.4 3.2 6.4 6.5 8.5 9.7.9 1.4 3.2 3.1 6.1 4.7 2.9 1.6 6.5 3.2 9.9 4.7 3.4 1.4 6.8 2.7 9.4 3.6 2.6.9 4.3 1.5 4.7 1.6-.1 0-.5.2-1 .5-.6.3-1.3.7-2.2 1-.8.4-1.7.8-2.5 1.1-.8.3-1.6.5-2.2.6-.4.1-.7.4-.8.9-.1.5-.1 1.2.1 1.9.1.7.4 1.6.7 2.3.3.8.6 1.5 1 2.1.1.2.2.3.3.4.1.1.2.3.3.4l.3.3c.1.8.2.9.3.9zm-33.2-24.9c.4.8.7 1.6 1.1 2.4.4.8.7 1.7 1 2.6.3.9.6 1.8.9 2.8.3 1 .5 2 .8 3 0-.1-.1-.4-.2-1s-.3-1.4-.6-2.4-.7-2.1-1.2-3.4c-.4-1.2-1-2.6-1.8-4-1.5-3-3.1-5.5-4.8-7.5-1.6-2-3.3-3.6-4.7-4.8-1.5-1.2-2.8-2-3.7-2.6-1-.5-1.6-.8-1.7-.8-.1-.1-.3-.1-.4-.2-.1-.1-.2-.1-.4-.1-.1 0-.2-.1-.3-.1h-.3c-.2 0-.3.1-.4.1-.1.1-.1.2-.1.3 0 .2.1.3.3.5.2.2.4.5.7.7 2 .8 3.9 1.8 5.5 2.8 1.6 1.1 3.1 2.3 4.4 3.5 1.3 1.3 2.4 2.6 3.4 3.9 1 1.6 1.8 3 2.5 4.3m-31.6-33.3l.6-.6c.2-.2.3-.5.3-.8.1-.3.1-.6.1-.9 0-.3-.1-.6-.2-.9-.1-.2-.2-.4-.3-.5l-.4-.4c-.2-.1-.3-.2-.5-.2s-.4-.1-.5 0h-.2c-.1 0-.2 0-.2.1-.1 0-.2.1-.2.1-.1 0-.1.1-.2.1l-.6.6c-.2.2-.3.5-.3.8-.1.3-.1.6-.1.9 0 .3.1.6.3.9.1.2.2.4.3.5l.4.4c.2.1.3.2.5.2s.4.1.5 0h.2c.1 0 .2 0 .2-.1.1 0 .2-.1.2-.1-.1 0 0-.1.1-.1" fill="#002C42"/><path fill="#FFF" d="M165.7 58.8l12.6-.3h.3c.1 0 .1.1.2.2s.1.2.1.3v5.3h.3l1.5-2.1c.5-.7 1.1-1.3 1.6-1.8.6-.5 1.2-1 1.8-1.4.6-.3 1.3-.6 2-.6h.4c1 0 2 .4 2.8 1.2.8.8 1.6 1.8 2.2 3 .6 1.2 1.1 2.6 1.4 3.9.3 1.3.5 2.6.5 3.8v.5c0 .2 0 .3-.1.4 0 .1-.1.2-.2.3-.1.1-.2.1-.3.1-.1 0-.2 0-.4-.1l-.3-.3c-.1-.1-.2-.2-.2-.4-.1-.2-.1-.3-.2-.5-.4-.9-.8-1.8-1.3-2.4-.5-.7-1-1.2-1.6-1.6-.6-.4-1.2-.7-1.8-.9-.6-.2-1.3-.3-2-.3-.9.1-1.7.5-2.4 1.2s-1.3 1.7-1.8 2.9-.9 2.6-1.1 4.2c-.3 1.6-.4 3.3-.4 5.1l.4 51.4v1c0 .1 0 .2.1.2l4.3 4.6c.1.1.2.1.2.2.1.1.1.2.2.2 0 .1.1.2.1.3v.4c0 .1-.1.1-.1.2-.1 0-.1.1-.2.1s-.2.1-.3.1l-17.3 1.4h-.3c-.1 0-.2 0-.2-.1-.1 0-.1-.1-.1-.2v-.5c0-.1 0-.2.1-.3 0-.1.1-.2.2-.3.1-.1.1-.2.2-.3l4-5.3c.1-.1.1-.2.1-.2 0-.1.1-.2.1-.3v-.7l-.6-64.8v-.4c0-.1 0-.2-.1-.3 0-.1-.1-.2-.2-.2-.1-.1-.2-.1-.3-.2l-3.8-3.9-.3-.3c-.1-.1-.1-.2-.2-.3 0-.1-.1-.2-.1-.3v-.5c0-.1.1-.1.1-.2.1 0 .1-.1.2-.1 0-.1.1-.1.2-.1zm-1 70.8h.2c.1 0 .1.1.1.1 0 .1.1.1.1.2v.3c-.1 1-.4 2.1-.8 3.1s-.9 1.9-1.5 2.8c-.6.8-1.3 1.6-2 2.1s-1.5.9-2.3 1h-.2c-1 .1-1.9 0-2.7-.3-.8-.2-1.5-.6-2.1-1.1-.6-.5-1.2-1-1.7-1.6-.5-.6-.9-1.2-1.3-1.8-.5.7-1.1 1.4-1.7 2-.6.7-1.4 1.3-2.1 1.9-.8.6-1.6 1.1-2.4 1.5-.8.4-1.7.7-2.6.8h-.4c-1.3.1-2.7 0-4.1-.5-1.4-.5-2.7-1.5-3.9-3.1-1.2-1.6-2.2-3.9-2.9-7-.7-3.1-1.2-7.1-1.3-12.1-.1-4.1 0-7.5.4-10.4.4-3 1.1-5.5 2.3-8 1.2-2.5 2.9-4.8 5.2-7.4 2.3-2.6 5.2-5.4 8.9-8.8.7-.6 1.2-1.2 1.5-1.7.4-.6.6-1.1.8-1.8.2-.7.2-1.5.3-2.5v-3.7c0-1.6-.1-2.9-.3-4-.2-1.1-.5-1.8-1-2.4-.4-.6-1-1-1.8-1.2-.7-.2-1.6-.3-2.7-.3h-.4c-1 .1-2.1.4-3.1.8-1.1.4-2.2.9-3.3 1.6-1.1.6-2.1 1.3-3 2-.9.7-1.7 1.4-2.3 2.1l-.2.2c-.1.1-.2.1-.2.1-.1 0-.2.1-.3.1h-.5c-.1 0-.1-.1-.2-.1s-.1-.1-.1-.2V72c0-.4.5-1.4 1.3-2.6.8-1.2 2-2.7 3.4-4.1 1.4-1.4 3-2.8 4.8-3.9 1.7-1.1 3.6-1.8 5.5-1.9h.4c1.2 0 2.7.1 4.2.6s3 1.3 4.4 2.7c1.4 1.3 2.6 3.1 3.5 5.5.9 2.4 1.4 5.4 1.5 9.1l.6 52.3c0 .5 0 .9.1 1.3s.2.8.3 1.1c.1.3.3.6.5.8.2.2.5.3.8.2.3 0 .6-.1 1-.3.3-.1.6-.3.9-.5.3-.2.6-.5.9-.8.3-.3.5-.7.8-1.1.1-.1.1-.2.2-.2.1-.1.1-.1.1-.2s.1-.1.1-.1l.3-.3zm-15.4-4.2l-.5-38h-.3c-1.8 1.8-3.3 3.5-4.5 5.2-1.2 1.7-2.2 3.5-2.9 5.6-.7 2-1.2 4.3-1.5 7-.3 2.7-.4 5.8-.3 9.5.1 4.2.2 7.5.4 10.1.2 2.6.5 4.6.9 6 .4 1.4.9 2.3 1.4 2.8.6.5 1.2.7 1.9.6h.1c.7-.1 1.4-.4 2-1 .6-.5 1.2-1.3 1.6-2.1.5-.8.8-1.8 1.1-2.8.4-.9.6-2 .6-2.9m110.2-76.2h.5c.2 0 .3.1.5.2s.3.2.4.4c.1.1.3.3.3.5.1.3.2.6.2.9 0 .3 0 .6-.1.9-.1.3-.2.6-.3.8-.2.2-.4.5-.6.6-.1 0-.1.1-.2.1s-.1.1-.2.1-.2 0-.2.1h-.7c-.2 0-.4-.1-.5-.2-.2-.1-.3-.2-.4-.4-.1-.1-.3-.3-.3-.5l-.3-.9c0-.3 0-.6.1-.9.1-.3.2-.6.3-.8.2-.2.4-.5.6-.6.1 0 .1-.1.2-.1s.2-.1.2-.1c.1 0 .2 0 .2-.1h.3z"/><path fill="#FFF" d="M350.5 41.6c-.5-3.2-1.3-6.3-2.3-9.2-1-2.9-2.3-5.7-3.8-8.2-1.5-2.6-3.2-5-5.2-7.1-2.1-2.3-4.5-4.4-7-6.1-2.6-1.8-5.4-3.3-8.4-4.4-3-1.2-6.2-2.1-9.7-2.7-3.4-.6-7.1-.9-10.8-.8L85.8 2.2h-2.4c-12.2.4-22.5 2.6-31 6.3-8.6 3.7-15.5 8.8-20.7 14.7-5.2 6-8.8 12.8-11 20-2.2 7.2-2.9 14.6-2.5 21.9l1.4 62.9c.5 9.3 2.8 17.6 6.6 24.7 3.8 7 9 12.8 15.4 17.3 6.4 4.4 14 7.5 22.5 9.1 5 1 10.4 1.4 16 1.3 3.8-.1 7.8-.3 11.8-.9l11.5-1.6 2.2 48.6 79.4-59.6L303.4 154c.1 0 .3 0 .4-.1.1 0 .3 0 .4-.1.1 0 .3 0 .4-.1.1 0 .3 0 .4-.1 7.1-1.1 13.5-3.3 19-6.4 5.5-3 10.3-6.9 14.1-11.5 3.8-4.6 6.8-9.9 8.8-15.8 2-5.9 3-12.4 3-19.4l1.2-49.1c.2-3.3 0-6.6-.6-9.8zm-5.3 59.4c0 6.1-.9 11.8-2.7 16.9-1.8 5.2-4.5 9.8-7.9 13.8-3.4 4-7.7 7.4-12.6 10-5 2.7-10.6 4.5-17 5.5-.1 0-.3 0-.4.1-.1 0-.3 0-.4.1-.1 0-.3 0-.4.1h-.4l-119.3 12.4-.9.1-71 52.9-1.9-43.4-18.4 2.4-.4.1c-4.2.5-8.1.8-11.8.8-6 0-11.4-.6-16.2-1.7-8-1.9-14.5-5.2-19.7-9.5-5.2-4.3-9.1-9.7-11.7-15.5-2.7-5.9-4.1-12.2-4.4-18.6l-1.3-62.6c-.5-8 .6-15.4 3.1-21.9 2.5-6.5 6.3-12.3 11.4-17 5-4.7 11.3-8.5 18.6-11.1 7.2-2.6 15.4-4.2 24.4-4.5h2.2l217.2-.4c3.5-.1 6.8.2 9.9.7 3.1.5 6 1.3 8.8 2.3 2.7 1 5.2 2.3 7.6 3.9 2.3 1.6 4.4 3.4 6.3 5.4 1.7 1.9 3.2 3.9 4.5 6.1 1.3 2.2 2.4 4.6 3.3 7 .9 2.5 1.5 5.1 2 7.8s.7 5.6.7 8.6l-1.2 49.2z"/><path fill="#FFF" d="M277.2 71.2c.1 0 .7.3 1.7.8s2.3 1.4 3.7 2.6c1.5 1.2 3.1 2.8 4.7 4.8s3.3 4.5 4.8 7.5c-.7-1.3-1.5-2.7-2.5-4-1-1.3-2.1-2.7-3.4-3.9-1.3-1.3-2.7-2.5-4.4-3.5-1.6-1.1-3.5-2-5.5-2.8-.3-.3-.6-.5-.7-.7-.2-.2-.3-.4-.3-.5 0-.1 0-.3.1-.3.1-.1.2-.1.4-.1h.3c.1 0 .2 0 .3.1.1 0 .2.1.4.1.2-.2.3-.2.4-.1zM194 30.5h12.1c.1 0 .2 0 .3.1.1 0 .1.1.2.2 0 .1.1.2.1.3v.4l.2 58.2h.3l8.2-24.2c.1-.3.2-.6.2-.9v-.9c0-.3-.1-.5-.2-.8-.1-.2-.2-.5-.4-.7l-2.3-3.4c0-.1-.1-.1-.1-.2s-.1-.1-.1-.1 0-.1-.1-.1v-.3s0-.1.1-.1c0 0 .1-.1.2-.1h.2l12.6-.3h.2c.1 0 .1 0 .1.1 0 0 .1.1.1.2v.5c0 .1 0 .2-.1.2 0 .1-.1.2-.2.3-.1.1-.2.2-.3.4l-2.2 2.4c-.1.2-.3.4-.4.7-.1.2-.2.5-.4.7-.1.3-.2.5-.3.8l-.3.9-8.4 24.6 11 36.5.3.9c.1.3.2.5.3.8l.3.6c.1.2.2.3.3.4l3.3 3.4c.1.1.2.1.2.2.1.1.1.2.2.2.1.1.1.2.1.3v.6c0 .1-.1.2-.1.2 0 .1-.1.1-.2.2-.1 0-.1.1-.2.1l-13.3 1.1h-.3c-.1 0-.1-.1-.1-.1s0-.1-.1-.2v-.4c0-.1.1-.2.1-.3 0-.1.1-.2.2-.3.1-.1.1-.2.2-.3l1.3-2.2c.1-.2.1-.4.2-.5 0-.2.1-.4.1-.6v-.6c0-.2-.1-.4-.1-.6l-8.2-26.9-2.1 6.1.1 21.8v.3c0 .1 0 .2.1.3 0 .1.1.2.2.3l.2.2 2.9 2.9.2.2c.1.1.1.2.2.2 0 .1.1.2.1.2v.2c0 .1 0 .2-.1.3 0 .1-.1.1-.2.2-.1 0-.1.1-.2.1s-.2 0-.2.1l-15.6 1.3h-.3c-.1 0-.2 0-.2-.1-.1 0-.1-.1-.1-.2s0-.2-.1-.3v-.2c0-.1 0-.2.1-.3 0-.1.1-.2.2-.3.1-.1.1-.2.2-.2l3.6-3.5.2-.2c.1-.1.1-.2.1-.3 0-.1.1-.2.1-.3v-.3l-.5-93.7v-.3c0-.1 0-.2-.1-.3 0-.1-.1-.2-.2-.3-.1-.1-.1-.2-.2-.2l-3.7-3.3-.2-.2c-.1-.1-.1-.2-.2-.3 0-.1-.1-.2-.1-.3v-.4c0-.1.1-.1.1-.2.1 0 .1-.1.2-.1.5-.3.6-.3.7-.3zm-89.8.2h13.7c.1 0 .2 0 .3.1.1 0 .2.1.2.2.1.1.1.2.1.3 0 .1.1.2.1.4l1.7 102.8v.8c0 .1 0 .2.1.3 0 .1.1.2.2.2l4.4 4.8.2.2c.1.1.1.2.2.3.1.1.1.2.1.3 0 .1.1.2.1.2v.3c0 .1-.1.1-.1.2-.1.1-.1.1-.2.1s-.2.1-.3.1l-18.5 1.5h-.3c-.1 0-.2 0-.3-.1-.1 0-.1-.1-.2-.2 0-.1-.1-.2-.1-.3v-.2c0-.1.1-.2.1-.3.1-.1.1-.2.2-.3.1-.1.1-.2.2-.3l4.3-5.5c.1-.1.1-.2.2-.3 0-.1.1-.2.1-.3v-.8L108.9 38v-.4c0-.1-.1-.2-.1-.3 0-.1-.1-.2-.1-.3-.1-.1-.1-.2-.2-.2l-4.4-4.4c-.1-.1-.1-.2-.2-.2-.1-.1-.1-.2-.2-.3-.1-.1-.1-.2-.1-.3 0-.1-.1-.2-.1-.2 0-.1 0-.2.1-.3 0-.1.1-.1.2-.2.1 0 .2-.1.3-.1-.1-.1 0-.1.1-.1zM82.1 60.8c2.4-.1 4.7.4 6.8 1.7 2.1 1.2 4 3.2 5.7 6.1 1.6 2.9 3 6.8 4 11.7 1 5 1.6 11.1 1.7 18.5.2 9-.1 16.4-.9 22.3-.7 5.9-1.8 10.5-3.2 14-1.4 3.5-3.1 5.9-5.1 7.5-1.9 1.6-4.1 2.4-6.4 2.7h-.8c-2.3.2-4.6-.1-6.7-1.3-2.1-1.2-4-3.3-5.7-6.5-1.7-3.3-3.1-7.8-4.2-13.8-1.1-6.1-1.8-13.7-2-23.2-.2-7.4.2-13.6.9-18.7s1.9-9.1 3.4-12.2c1.5-3.1 3.3-5.2 5.2-6.7 2-1.4 4.2-2.1 6.5-2.3h.6c.1.2.2.2.2.2zM89 99.4c-.1-6.6-.4-11.9-.7-16.2-.3-4.3-.8-7.4-1.3-9.8-.6-2.4-1.2-3.9-2-4.8-.8-.9-1.7-1.3-2.7-1.2-.9.1-1.8.5-2.4 1.5-.7 1-1.3 2.6-1.7 5-.4 2.4-.7 5.7-.9 9.9-.1 4.3-.2 9.6 0 16.1.2 8.6.5 15.4.9 20.6.4 5.3.8 9.1 1.4 11.8.6 2.7 1.2 4.4 2 5.3.8 1 1.6 1.2 2.5 1.1h.4c1-.1 1.8-.6 2.5-1.7s1.3-2.9 1.7-5.7c.4-2.8.7-6.7.8-11.9-.3-5-.3-11.6-.5-20"/></svg>